<?xml version="1.0" encoding="UTF-8" standalone="no"?>
<!-- Created with Inkscape (http://www.inkscape.org/) -->

<svg
   xmlns:dc="http://purl.org/dc/elements/1.1/"
   xmlns:cc="http://creativecommons.org/ns#"
   xmlns:rdf="http://www.w3.org/1999/02/22-rdf-syntax-ns#"
   xmlns:svg="http://www.w3.org/2000/svg"
   xmlns="http://www.w3.org/2000/svg"
   xmlns:sodipodi="http://sodipodi.sourceforge.net/DTD/sodipodi-0.dtd"
   xmlns:inkscape="http://www.inkscape.org/namespaces/inkscape"
   id="svg2"
   version="1.1"
   inkscape:version="0.48.4 r9939"
   width="82.172501"
   height="80.43811"
   xml:space="preserve"
   sodipodi:docname="analogist-logo-white.svg"><metadata
     id="metadata8"><rdf:RDF><cc:Work
         rdf:about=""><dc:format>image/svg+xml</dc:format><dc:type
           rdf:resource="http://purl.org/dc/dcmitype/StillImage" /><dc:title></dc:title></cc:Work></rdf:RDF></metadata><defs
     id="defs6"><clipPath
       clipPathUnits="userSpaceOnUse"
       id="clipPath18"><path
         d="m 0,841.89 595.28,0 L 595.28,0 0,0 0,841.89 z"
         id="path20"
         inkscape:connector-curvature="0" /></clipPath></defs><sodipodi:namedview
     pagecolor="#ffffff"
     bordercolor="#666666"
     borderopacity="1"
     objecttolerance="10"
     gridtolerance="10"
     guidetolerance="10"
     inkscape:pageopacity="0"
     inkscape:pageshadow="2"
     inkscape:window-width="1280"
     inkscape:window-height="995"
     id="namedview4"
     showgrid="false"
     fit-margin-left="5"
     fit-margin-top="5"
     fit-margin-right="5"
     fit-margin-bottom="5"
     inkscape:zoom="1.2685909"
     inkscape:cx="57.745089"
     inkscape:cy="-196.84558"
     inkscape:window-x="0"
     inkscape:window-y="0"
     inkscape:window-maximized="1"
     inkscape:current-layer="g10" /><g
     id="g10"
     inkscape:groupmode="layer"
     inkscape:label="analogist-logo2014"
     transform="matrix(1.25,0,0,-1.25,-302.80225,952.23756)"><g
       id="g386"
       transform="translate(259.7788,718.32156)"><path
         inkscape:connector-curvature="0"
         d="m 0,0 c -2.612,4.575 -3.483,10.018 -1.089,14.81 -2.177,-5.445 0,-11.108 3.266,-15.462 2.179,-2.395 4.574,-4.138 7.623,-5.226 2.613,-0.871 5.443,-1.308 8.277,-1.089 4.612,0.628 8.81,2.486 12.035,5.927 0.346,-0.11 0.706,-0.186 1.088,-0.186 0.834,0 1.591,0.295 2.2,0.771 -0.872,-1.209 -1.877,-2.461 -2.871,-3.388 -1.834,-1.644 -3.931,-2.97 -6.355,-3.779 C 23.738,-7.837 23.302,-8.057 22.867,-8.273 14.372,-11.104 4.792,-7.837 0,0 m 3.485,-13.501 c -0.872,0.652 -1.525,1.089 -2.396,1.523 -0.916,0.573 -1.708,1.209 -2.445,1.902 0.219,0.346 0.351,0.753 0.351,1.193 0,1.234 -1.001,2.235 -2.235,2.235 -0.355,0 -0.686,-0.09 -0.984,-0.238 -0.334,0.391 -0.669,0.78 -1.003,1.226 -2.44,3.525 -3.889,7.427 -4.332,11.39 0.85,0.093 1.613,0.467 2.179,1.046 0.41,-4.426 2.22,-8.533 5.044,-11.922 0,0 1.839,-2.259 3.862,-3.813 0.269,-0.249 0.556,-0.465 0.87,-0.622 0.065,-0.037 0.131,-0.073 0.197,-0.109 0.163,-0.098 0.325,-0.188 0.488,-0.268 2.436,-1.318 4.977,-2.404 7.623,-3.044 -0.008,-0.097 -0.03,-0.189 -0.03,-0.288 0,-1.482 0.899,-2.755 2.181,-3.303 -3.263,0.482 -6.486,1.362 -9.37,3.092 M -9.867,12.865 c -0.028,0 -0.053,0.008 -0.08,0.008 -1.07,0 -2.02,-0.477 -2.678,-1.22 0.689,5.127 2.888,10.054 6.311,14.047 3.483,3.699 7.837,6.531 13.065,7.621 0.373,0.08 0.745,0.135 1.118,0.197 0.592,-1.01 1.657,-1.699 2.897,-1.764 -2.955,-0.162 -5.772,-0.851 -8.589,-2.355 -2.612,-1.523 -4.789,-3.048 -6.751,-5.224 -2.394,-2.832 -4.138,-6.098 -5.009,-9.8 -0.109,-0.509 -0.201,-1.011 -0.284,-1.51 m 8.778,7.823 C -7.839,12.85 -5.662,0.437 2.396,-5.878 c 0.653,-0.436 1.089,-0.653 1.523,-1.089 2.66,-1.772 5.498,-2.855 8.381,-3.322 -0.685,-0.45 -1.193,-1.131 -1.444,-1.929 -1.919,0.432 -3.809,1.11 -5.629,2.203 C 3.266,-8.709 1.742,-7.402 0,-5.878 -6.968,1.09 -8.058,13.503 -1.089,20.688 M 25.697,22.65 C 22.431,27.658 16.334,29.835 10.671,29.618 2.83,29.183 -3.92,23.737 -6.314,16.336 c -0.443,-1.549 -0.772,-3.098 -0.961,-4.674 -0.511,0.573 -1.194,0.987 -1.978,1.141 0.643,3.2 1.965,6.322 4.026,9.192 3.268,4.572 7.623,7.404 13.066,8.277 6.969,1.307 14.374,-1.307 17.858,-7.622 M 7.839,-0.87 c 4.792,-3.266 10.889,-3.484 15.899,-1.09 1.547,0.811 2.929,1.81 4.142,2.96 0.298,-0.725 0.832,-1.319 1.5,-1.715 C 27.711,-2.231 25.803,-3.449 23.738,-4.354 16.549,-7.402 7.839,-5.226 3.485,1.526 0.653,5.882 0.653,11.545 3.485,15.682 0.436,10.018 2.613,2.832 7.839,-0.87 m 6.289,34.55 c 6.5,-0.737 12.43,-4.283 15.924,-10.159 C 33.254,17.919 33.322,11.4 30.273,5.817 28.742,5.406 27.609,4.023 27.609,2.363 27.609,2.349 27.613,2.334 27.614,2.319 25.542,0.332 23.092,-0.855 20.253,-1.523 15.462,-2.611 9.8,-0.87 8.058,3.702 c 2.177,-3.049 6.097,-4.572 9.8,-4.354 7.839,0.435 13.284,8.275 12.848,15.678 -0.435,5.662 -3.703,10.454 -8.493,13.722 -3.049,1.961 -6.533,2.831 -10.017,3.048 -0.283,0 -0.564,-0.012 -0.844,-0.021 1.214,0.136 2.236,0.868 2.776,1.905 m 1.115,2.907 c 3.702,-0.654 6.754,-1.525 10.018,-3.701 3.05,-2.177 5.445,-4.573 7.406,-7.841 3.899,-6.239 3.948,-13.699 0.946,-20.039 -0.577,0.527 -1.324,0.86 -2.153,0.921 0.528,1.136 0.935,2.355 1.207,3.656 1.306,6.316 -0.219,12.631 -4.356,17.422 -3.634,4.129 -8.643,6.5 -13.986,7.122 0.134,0.377 0.22,0.777 0.22,1.2 0,0.485 -0.098,0.945 -0.272,1.366 0.323,-0.035 0.645,-0.057 0.97,-0.106 M 41.965,14.369 c -0.009,0 -0.018,-0.003 -0.028,-0.003 -0.024,0.582 -0.062,1.165 -0.124,1.75 -0.187,1.772 -0.575,3.506 -1.128,5.182 0.703,-2.29 1.071,-4.617 1.135,-6.944 -1.164,-0.076 -2.09,-1.035 -2.09,-2.219 0,-1.097 0.79,-2.004 1.83,-2.196 -0.617,-4.272 -2.286,-8.461 -4.975,-12.333 -2.394,-3.484 -5.225,-5.879 -8.71,-7.621 -3.209,-1.785 -6.568,-2.537 -10.071,-2.755 -0.132,0.899 -0.593,1.681 -1.262,2.235 3.521,0.147 7.015,1.152 10.246,2.913 5.879,3.486 10.016,8.712 11.541,15.464 1.959,8.057 -0.218,15.679 -5.227,21.993 -0.144,0.174 -0.305,0.328 -0.452,0.498 1.971,0.016 3.563,1.615 3.563,3.589 0,1.982 -1.607,3.59 -3.591,3.59 -1.983,0 -3.591,-1.608 -3.591,-3.59 0,-0.065 0.015,-0.124 0.018,-0.188 -8.508,6.62 -20.664,7.62 -30.138,2.417 7.186,3.703 15.897,4.138 23.52,1.089 2.431,-1.001 4.669,-2.337 6.663,-3.949 0.273,-1.529 1.51,-2.71 3.062,-2.914 2.54,-2.854 4.451,-6.276 5.52,-10.122 C 39.156,14.543 38.787,8.833 35.97,3.521 35.928,3.446 35.408,2.537 34.623,1.332 c 0.098,0.329 0.168,0.67 0.168,1.031 0,0.886 -0.333,1.687 -0.866,2.313 1.572,3.377 2.286,7.099 2.008,11.006 -0.436,6.096 -3.485,11.323 -8.058,15.462 -3.911,3.257 -8.675,5.174 -13.655,5.66 -0.564,1.244 -1.81,2.114 -3.266,2.114 -1.539,0 -2.841,-0.974 -3.352,-2.333 -4.862,-0.833 -9.414,-3.004 -13.174,-6.191 -0.268,0.932 -1.12,1.619 -2.138,1.619 -1.235,0 -2.237,-1 -2.237,-2.235 0,-1.003 0.663,-1.839 1.57,-2.123 -0.738,-0.827 -1.435,-1.694 -2.076,-2.61 0.661,0.907 1.377,1.769 2.128,2.594 0.197,-0.056 0.4,-0.096 0.615,-0.096 1.233,0 2.235,0.998 2.235,2.235 0,0.19 -0.031,0.371 -0.075,0.547 3.762,3.196 8.267,5.411 13.135,6.205 -0.135,-0.378 -0.222,-0.779 -0.222,-1.203 0,-0.558 0.138,-1.081 0.366,-1.552 -0.035,-0.004 -0.074,-0.02 -0.106,-0.02 -11.116,-1.735 -18.9,-11.509 -20.274,-22.133 -0.545,-0.63 -0.886,-1.44 -0.886,-2.339 0,-0.785 0.259,-1.506 0.686,-2.097 0.01,-0.225 0.029,-0.45 0.045,-0.674 -0.015,0.217 -0.018,0.435 -0.027,0.653 0.634,-0.863 1.639,-1.431 2.785,-1.464 0.011,-0.085 0.018,-0.17 0.03,-0.256 0.841,-4.71 2.733,-8.892 5.553,-12.462 -0.608,-0.399 -1.01,-1.085 -1.01,-1.866 0,-1.234 0.999,-2.234 2.235,-2.234 0.722,0 1.358,0.348 1.767,0.881 3.188,-2.711 6.594,-4.6 10.619,-5.66 1.089,-0.219 1.962,-0.435 2.832,-0.654 0.357,-0.049 0.716,-0.071 1.074,-0.107 0.38,-0.137 0.784,-0.225 1.212,-0.225 0.211,0 0.414,0.028 0.615,0.063 1.571,-0.111 3.112,-0.048 4.634,0.143 -1.484,-0.154 -2.98,-0.178 -4.481,-0.12 1.54,0.336 2.697,1.66 2.801,3.274 3.315,0.248 6.568,1.116 9.607,2.634 0.654,0.437 1.307,0.656 1.96,1.09 6.929,4.677 11.364,11.836 12.347,19.719 0.073,-0.008 0.143,-0.023 0.218,-0.023 1.236,0 2.236,1.001 2.236,2.237 0,1.234 -1,2.234 -2.236,2.234 m -4.289,13.289 c 0.497,-0.797 0.961,-1.618 1.387,-2.458 -0.031,0.091 -0.058,0.185 -0.081,0.28 -0.437,0.871 -0.871,1.525 -1.306,2.178 m 2.172,-4.142 c 0.311,-0.727 0.592,-1.467 0.837,-2.218 -0.183,0.598 -0.386,1.194 -0.613,1.788 -0.076,0.147 -0.15,0.29 -0.224,0.43 M 19.513,-16.676 c 2.24,0.236 4.452,0.711 6.619,1.432 -2.193,-0.609 -4.387,-1.15 -6.619,-1.432 m 20.335,40.192 c -0.244,0.569 -0.507,1.13 -0.785,1.684 0.187,-0.596 0.476,-1.103 0.785,-1.684"
         style="fill:#ffffff;fill-opacity:1;fill-rule:nonzero;stroke:none"
         id="path388" /></g></g></svg>